<svg width="213" height="224" viewBox="0 0 213 224" fill="none" xmlns="http://www.w3.org/2000/svg">
<rect x="2.5" y="2.5" width="208" height="215" rx="17.5" fill="white" stroke="white" stroke-width="5"/>
<path d="M24.1611 155.498V145.7H106.133V163.502L88.1241 161.018V155.498H52.4511V184.202H88.1241V178.682L106.133 176.198V194H34.4421V155.498H24.1611ZM110.934 155.498V145.7H134.394L153.99 177.647L173.448 145.7H192.423L162.615 194H145.089L121.215 155.498H110.934Z" fill="#2B0F43"/>
<path d="M25 128V21.8H41.2V128H25ZM46.6 128V21.8H62.8V128H46.6ZM68.2 128V21.8H73.6V128H68.2ZM89.8 128V21.8H95.2V128H89.8ZM100.6 128V21.8H106V128H100.6ZM111.484 128V21.8H116.884V128H111.484ZM133.084 128V21.8H149.284V128H133.084ZM154.684 128V21.8H160.084V128H154.684ZM165.484 128V21.8H170.884V128H165.484ZM176.284 128V21.8H192.484V128H176.284Z" fill="#2B0F43"/>
</svg>
